<svg width="40" height="26" viewBox="0 0 40 26" fill="none" xmlns="http://www.w3.org/2000/svg">
<path d="M36.4179 0H3.58218C3.44543 0 3.30843 0 3.17192 0.000809701C3.05652 0.00164394 2.9414 0.00294437 2.82627 0.0061341C2.57518 0.0130288 2.32195 0.0280696 2.074 0.0733147C1.82209 0.119345 1.58768 0.194426 1.359 0.312643C1.13418 0.428724 0.928359 0.580555 0.749992 0.761732C0.571547 0.942909 0.422007 1.15154 0.307701 1.38005C0.191245 1.61224 0.117248 1.85031 0.0722267 2.10628C0.0274252 2.35809 0.0125122 2.61516 0.00574573 2.86982C0.00265247 2.98672 0.00132575 3.10361 0.000574187 3.22047C-0.000223295 3.35937 4.25324e-05 3.49818 4.25324e-05 3.63732V22.3629C4.25324e-05 22.5021 -0.000223295 22.6407 0.000574187 22.7798C0.00132575 22.8967 0.00265247 23.0136 0.00574573 23.1305C0.0125122 23.3849 0.0274252 23.642 0.0722267 23.8937C0.117248 24.1498 0.191245 24.3878 0.307701 24.62C0.422007 24.8485 0.571547 25.0574 0.749992 25.2383C0.928359 25.4198 1.13418 25.5716 1.359 25.6874C1.58768 25.8059 1.82209 25.881 2.074 25.927C2.32195 25.972 2.57518 25.9873 2.82627 25.9942C2.9414 25.9968 3.05652 25.9984 3.17192 25.9989C3.30843 26 3.44543 26 3.58218 26H36.4179C36.5544 26 36.6914 26 36.8279 25.9989C36.943 25.9984 37.0581 25.9968 37.1738 25.9942C37.4243 25.9873 37.6775 25.972 37.9261 25.927C38.1776 25.881 38.4121 25.8059 38.6408 25.6874C38.8659 25.5716 39.0711 25.4198 39.2498 25.2383C39.428 25.0574 39.5775 24.8485 39.6921 24.62C39.8088 24.3878 39.8827 24.1498 39.9275 23.8937C39.9724 23.642 39.9869 23.3849 39.9937 23.1305C39.9969 23.0136 39.9984 22.8967 39.9989 22.7798C40 22.6407 40 22.5021 40 22.3629V3.63732C40 3.49818 40 3.35937 39.9989 3.22047C39.9984 3.10361 39.9969 2.98672 39.9937 2.86982C39.9869 2.61516 39.9724 2.35809 39.9275 2.10628C39.8827 1.85031 39.8088 1.61224 39.6921 1.38005C39.5775 1.15154 39.428 0.942909 39.2498 0.761732C39.0711 0.580555 38.8659 0.428724 38.6408 0.312643C38.4121 0.194426 38.1776 0.119345 37.9261 0.0733147C37.6775 0.0280696 37.4243 0.0130288 37.1738 0.0061341C37.0581 0.00294437 36.943 0.00164394 36.8279 0.000809701C36.6914 0 36.5544 0 36.4179 0Z" fill="black"/>
<path d="M36.4178 0.866577L36.8217 0.867362C36.9312 0.868147 37.0406 0.86935 37.1506 0.872392C37.342 0.877643 37.5659 0.888169 37.7746 0.926151C37.956 0.959325 38.1082 1.00977 38.2542 1.08525C38.3983 1.15962 38.5304 1.25707 38.6457 1.37399C38.7615 1.49169 38.8576 1.626 38.9318 1.77398C39.0057 1.92108 39.0551 2.07482 39.0876 2.26037C39.1249 2.46996 39.1352 2.6979 39.1405 2.89343C39.1434 3.00379 39.1449 3.11416 39.1454 3.22715C39.1464 3.36379 39.1464 3.50036 39.1464 3.63727V22.3629C39.1464 22.4998 39.1464 22.6361 39.1454 22.7757C39.1449 22.886 39.1434 22.9964 39.1404 23.107C39.1352 23.3022 39.1249 23.53 39.0871 23.7421C39.0551 23.9251 39.0058 24.0789 38.9314 24.2267C38.8574 24.3743 38.7615 24.5085 38.6462 24.6254C38.5302 24.7432 38.3986 24.8404 38.2527 24.9154C38.1078 24.9905 37.9559 25.0409 37.7763 25.0738C37.5634 25.1123 37.3301 25.1229 37.1544 25.1277C37.0439 25.1302 36.9339 25.1318 36.8212 25.1323C36.6869 25.1334 36.5521 25.1333 36.4178 25.1333H3.58214C3.58035 25.1333 3.57861 25.1333 3.57679 25.1333C3.44403 25.1333 3.31099 25.1333 3.17581 25.1323C3.06558 25.1318 2.9556 25.1303 2.84927 25.1278C2.66957 25.1229 2.43615 25.1123 2.22497 25.074C2.0438 25.0409 1.89191 24.9905 1.74508 24.9144C1.60059 24.84 1.46905 24.743 1.35303 24.625C1.2379 24.5083 1.14223 24.3745 1.06826 24.2267C0.994211 24.079 0.94467 23.9248 0.912097 23.7396C0.874444 23.528 0.8641 23.301 0.858931 23.1071C0.855981 22.9961 0.854748 22.8851 0.854047 22.7747L0.853516 22.4489L0.85354 22.3629V3.63727L0.853516 3.55125L0.854023 3.22612C0.854748 3.11509 0.855981 3.00409 0.858931 2.89316C0.8641 2.69905 0.874443 2.47204 0.912408 2.25862C0.944694 2.07512 0.994211 1.92088 1.06864 1.77246C1.14203 1.62576 1.23788 1.49184 1.35361 1.37436C1.46888 1.25727 1.60085 1.15993 1.74626 1.08485C1.89152 1.00975 2.0437 0.959325 2.22487 0.926225C2.43362 0.888145 2.65766 0.877643 2.84954 0.872368C2.95892 0.86935 3.06829 0.868147 3.17685 0.867387L3.58214 0.866577H36.4178" fill="white"/>
<path d="M10.9197 8.61284C11.2622 8.18445 11.4946 7.60926 11.4333 7.02148C10.9319 7.04641 10.3201 7.35225 9.96589 7.78097C9.64785 8.1481 9.36635 8.74738 9.43974 9.31051C10.0025 9.35933 10.5648 9.0292 10.9197 8.61284Z" fill="black"/>
<path d="M11.4268 9.4205C10.6095 9.37181 9.91457 9.88437 9.52426 9.88437C9.13373 9.88437 8.53603 9.44503 7.88957 9.45687C7.04816 9.46923 6.26743 9.94497 5.84045 10.7016C4.96223 12.2153 5.60869 14.4606 6.46272 15.6934C6.87745 16.3033 7.37728 16.9748 8.03587 16.9507C8.65813 16.9263 8.90204 16.5478 9.65842 16.5478C10.4143 16.5478 10.634 16.9507 11.2927 16.9385C11.9758 16.9263 12.4028 16.3283 12.8175 15.7178C13.2933 15.0225 13.4881 14.3512 13.5003 14.3144C13.4881 14.3022 12.1831 13.8015 12.171 12.3005C12.1587 11.0436 13.1956 10.4457 13.2444 10.4087C12.6588 9.54268 11.744 9.44503 11.4268 9.4205Z" fill="black"/>
<path d="M18.5433 7.71948C20.3197 7.71948 21.5567 8.944 21.5567 10.7268C21.5567 12.516 20.2943 13.7469 18.4988 13.7469H16.5319V16.8747H15.1108V7.71948H18.5433V7.71948ZM16.5319 12.554H18.1625C19.3997 12.554 20.1039 11.8879 20.1039 10.7332C20.1039 9.57853 19.3997 8.91867 18.1688 8.91867H16.5319V12.554Z" fill="black"/>
<path d="M21.928 14.9778C21.928 13.8103 22.8226 13.0934 24.4088 13.0046L26.2359 12.8967V12.3829C26.2359 11.6405 25.7347 11.1964 24.8974 11.1964C24.1041 11.1964 23.6092 11.577 23.4888 12.1735H22.1945C22.2706 10.9679 23.2984 10.0797 24.948 10.0797C26.5659 10.0797 27.6 10.9362 27.6 12.2749V16.8748H26.2866V15.7771H26.255C25.8681 16.5195 25.0241 16.9889 24.1487 16.9889C22.8417 16.9889 21.928 16.1768 21.928 14.9778ZM26.2359 14.3751V13.8485L24.5926 13.9499C23.7742 14.0071 23.3111 14.3687 23.3111 14.9397C23.3111 15.5233 23.7933 15.9041 24.5292 15.9041C25.4872 15.9041 26.2359 15.2442 26.2359 14.3751Z" fill="black"/>
<path d="M28.8398 19.3302V18.2199C28.9411 18.2452 29.1695 18.2452 29.2838 18.2452C29.9182 18.2452 30.2609 17.9788 30.4701 17.2936C30.4701 17.2809 30.5908 16.8876 30.5908 16.8812L28.1799 10.2003H29.6644L31.3522 15.6313H31.3774L33.0653 10.2003H34.5118L32.0118 17.2237C31.4411 18.8417 30.7812 19.3619 29.3981 19.3619C29.2838 19.3619 28.9411 19.3492 28.8398 19.3302Z" fill="black"/>
</svg>
